# Blender 5.0.0
# www.blender.org
mtllib lidded_loose_plug.mtl
o lidded_loose_plug
v -0.062000 0.015000 0.000000
v -0.062000 -0.015000 0.036000
v -0.062000 0.015000 0.036000
v -0.062000 -0.015000 -0.000000
v -0.058000 -0.019000 -0.000000
v -0.004000 -0.019000 0.036000
v -0.058000 -0.019000 0.036000
v -0.004000 -0.019000 -0.000000
v 0.000000 -0.015000 -0.000000
v 0.000000 0.015000 0.036000
v 0.000000 -0.015000 0.036000
v 0.000000 0.015000 0.000000
v -0.058000 0.019000 0.036000
v -0.004000 0.019000 0.036000
v -0.004000 0.019000 0.000000
v -0.058000 0.019000 0.000000
v -0.002764 0.018804 0.036000
v -0.003374 0.018951 0.036000
v -0.059816 -0.018564 0.036000
v -0.059236 -0.018804 0.036000
v -0.002184 0.018564 0.036000
v -0.001172 0.017828 0.036000
v -0.001649 0.018236 0.036000
v -0.000436 0.016816 0.036000
v -0.000764 0.017351 0.036000
v -0.000196 0.016236 0.036000
v -0.000049 0.015626 0.036000
v -0.061804 0.016236 0.036000
v -0.061564 0.016816 0.036000
v -0.059236 0.018804 0.036000
v -0.059816 0.018564 0.036000
v -0.058626 0.018951 0.036000
v -0.060351 0.018236 0.036000
v -0.060828 0.017828 0.036000
v -0.061236 0.017351 0.036000
v -0.061951 0.015626 0.036000
v -0.058626 -0.018951 0.036000
v -0.060351 -0.018236 0.036000
v -0.061236 -0.017351 0.036000
v -0.060828 -0.017828 0.036000
v -0.061564 -0.016816 0.036000
v -0.061804 -0.016236 0.036000
v -0.061951 -0.015626 0.036000
v -0.002764 -0.018804 0.036000
v -0.002184 -0.018564 0.036000
v -0.003374 -0.018951 0.036000
v -0.001649 -0.018236 0.036000
v -0.001172 -0.017828 0.036000
v -0.000764 -0.017351 0.036000
v -0.000436 -0.016816 0.036000
v -0.000196 -0.016236 0.036000
v -0.000049 -0.015626 0.036000
v -0.059236 0.018804 0.000000
v -0.058626 0.018951 0.000000
v -0.002764 -0.018804 -0.000000
v -0.003374 -0.018951 -0.000000
v -0.059816 0.018564 0.000000
v -0.060351 0.018236 0.000000
v -0.060828 0.017828 0.000000
v -0.061564 0.016816 0.000000
v -0.061236 0.017351 0.000000
v -0.061951 0.015626 0.000000
v -0.061804 0.016236 0.000000
v -0.000436 -0.016816 -0.000000
v -0.000196 -0.016236 -0.000000
v -0.059816 -0.018564 -0.000000
v -0.059236 -0.018804 -0.000000
v -0.058626 -0.018951 -0.000000
v -0.060351 -0.018236 -0.000000
v -0.060828 -0.017828 -0.000000
v -0.061236 -0.017351 -0.000000
v -0.061564 -0.016816 -0.000000
v -0.061951 -0.015626 -0.000000
v -0.061804 -0.016236 -0.000000
v -0.000764 -0.017351 -0.000000
v -0.001172 -0.017828 -0.000000
v -0.002184 -0.018564 -0.000000
v -0.001649 -0.018236 -0.000000
v -0.000049 -0.015626 -0.000000
v -0.003374 0.018951 0.000000
v -0.002764 0.018804 0.000000
v -0.002184 0.018564 0.000000
v -0.001649 0.018236 0.000000
v -0.000764 0.017351 0.000000
v -0.001172 0.017828 0.000000
v -0.000436 0.016816 0.000000
v -0.000196 0.016236 0.000000
v -0.000049 0.015626 0.000000
vn -1.0000 -0.0000 -0.0000
vn -0.0000 -1.0000 -0.0000
vn 1.0000 -0.0000 -0.0000
vn -0.0000 1.0000 -0.0000
vn -0.0000 -0.0000 1.0000
vn -0.0000 -0.0000 -1.0000
vn 0.7604 0.6494 -0.0000
vn 0.8526 0.5225 -0.0000
vn 0.7604 0.6495 -0.0000
vn 0.9239 0.3827 -0.0000
vn 0.9724 0.2334 -0.0000
vn 0.9969 0.0785 -0.0000
vn 0.6494 0.7604 -0.0000
vn 0.5225 0.8526 -0.0000
vn 0.6495 0.7604 -0.0000
vn 0.3827 0.9239 -0.0000
vn 0.2334 0.9724 -0.0000
vn 0.0785 0.9969 -0.0000
vn 0.6494 -0.7604 -0.0000
vn 0.5225 -0.8526 -0.0000
vn 0.6495 -0.7604 -0.0000
vn 0.3827 -0.9239 -0.0000
vn 0.2334 -0.9724 -0.0000
vn 0.0785 -0.9969 -0.0000
vn 0.7604 -0.6494 -0.0000
vn 0.8526 -0.5225 -0.0000
vn 0.7604 -0.6495 -0.0000
vn 0.9239 -0.3827 -0.0000
vn 0.9724 -0.2334 -0.0000
vn 0.9969 -0.0785 -0.0000
vn -0.7604 -0.6494 -0.0000
vn -0.8526 -0.5225 -0.0000
vn -0.7604 -0.6495 -0.0000
vn -0.9239 -0.3827 -0.0000
vn -0.9724 -0.2334 -0.0000
vn -0.9969 -0.0785 -0.0000
vn -0.6494 -0.7604 -0.0000
vn -0.5225 -0.8526 -0.0000
vn -0.6495 -0.7604 -0.0000
vn -0.3827 -0.9239 -0.0000
vn -0.2334 -0.9724 -0.0000
vn -0.0785 -0.9969 -0.0000
vn -0.6494 0.7604 -0.0000
vn -0.5225 0.8526 -0.0000
vn -0.6495 0.7604 -0.0000
vn -0.3827 0.9239 -0.0000
vn -0.2334 0.9724 -0.0000
vn -0.0785 0.9969 -0.0000
vn -0.7604 0.6494 -0.0000
vn -0.8526 0.5225 -0.0000
vn -0.7604 0.6495 -0.0000
vn -0.9239 0.3827 -0.0000
vn -0.9724 0.2334 -0.0000
vn -0.9969 0.0785 -0.0000
s 0
f 1//1 2//1 3//1
f 1//1 4//1 2//1
f 5//2 6//2 7//2
f 5//2 8//2 6//2
f 9//3 10//3 11//3
f 9//3 12//3 10//3
f 13//4 14//4 15//4
f 15//4 16//4 13//4
f 17//5 18//5 14//5
f 19//5 20//5 7//5
f 14//5 21//5 17//5
f 14//5 22//5 23//5
f 21//5 14//5 23//5
f 24//5 25//5 14//5
f 14//5 25//5 22//5
f 26//5 24//5 14//5
f 14//5 10//5 27//5
f 26//5 14//5 27//5
f 3//5 14//5 13//5
f 28//5 13//5 29//5
f 30//5 31//5 13//5
f 32//5 30//5 13//5
f 33//5 34//5 13//5
f 33//5 13//5 31//5
f 34//5 35//5 13//5
f 36//5 13//5 28//5
f 35//5 29//5 13//5
f 3//5 10//5 14//5
f 3//5 13//5 36//5
f 3//5 2//5 10//5
f 7//5 20//5 37//5
f 10//5 2//5 11//5
f 38//5 19//5 7//5
f 39//5 40//5 7//5
f 7//5 40//5 38//5
f 41//5 7//5 42//5
f 41//5 39//5 7//5
f 7//5 2//5 43//5
f 42//5 7//5 43//5
f 7//5 11//5 2//5
f 7//5 6//5 11//5
f 6//5 44//5 45//5
f 6//5 46//5 44//5
f 6//5 47//5 48//5
f 45//5 47//5 6//5
f 6//5 49//5 50//5
f 48//5 49//5 6//5
f 6//5 51//5 52//5
f 50//5 51//5 6//5
f 6//5 52//5 11//5
f 16//6 53//6 54//6
f 8//6 55//6 56//6
f 57//6 16//6 58//6
f 57//6 53//6 16//6
f 59//6 58//6 16//6
f 16//6 60//6 61//6
f 59//6 16//6 61//6
f 16//6 62//6 63//6
f 60//6 16//6 63//6
f 62//6 16//6 1//6
f 64//6 8//6 65//6
f 66//6 5//6 67//6
f 68//6 67//6 5//6
f 69//6 70//6 5//6
f 69//6 5//6 66//6
f 5//6 71//6 72//6
f 70//6 71//6 5//6
f 73//6 5//6 74//6
f 5//6 72//6 74//6
f 8//6 5//6 9//6
f 4//6 5//6 73//6
f 8//6 75//6 76//6
f 77//6 8//6 78//6
f 77//6 55//6 8//6
f 8//6 64//6 75//6
f 76//6 78//6 8//6
f 8//6 9//6 79//6
f 79//6 65//6 8//6
f 12//6 9//6 4//6
f 9//6 5//6 4//6
f 1//6 12//6 4//6
f 15//6 12//6 1//6
f 80//6 81//6 15//6
f 15//6 82//6 83//6
f 81//6 82//6 15//6
f 84//6 15//6 85//6
f 15//6 83//6 85//6
f 86//6 15//6 84//6
f 15//6 87//6 88//6
f 86//6 87//6 15//6
f 15//6 88//6 12//6
f 15//6 1//6 16//6
f 25//7 85//7 22//7
f 25//8 24//8 84//8
f 84//9 85//9 25//9
f 86//10 24//10 26//10
f 24//8 86//8 84//8
f 27//11 87//11 26//11
f 86//10 26//10 87//10
f 27//12 10//12 88//12
f 88//11 87//11 27//11
f 10//12 12//12 88//12
f 83//13 22//13 85//13
f 23//14 83//14 82//14
f 83//15 23//15 22//15
f 81//16 21//16 82//16
f 23//14 82//14 21//14
f 81//17 80//17 17//17
f 17//16 21//16 81//16
f 18//18 80//18 15//18
f 80//17 18//17 17//17
f 18//18 15//18 14//18
f 47//19 76//19 48//19
f 47//20 45//20 78//20
f 78//21 76//21 47//21
f 77//22 45//22 44//22
f 45//20 77//20 78//20
f 46//23 55//23 44//23
f 77//22 44//22 55//22
f 46//24 6//24 56//24
f 56//23 55//23 46//23
f 6//24 8//24 56//24
f 75//25 48//25 76//25
f 49//26 75//26 64//26
f 75//27 49//27 48//27
f 65//28 50//28 64//28
f 49//26 64//26 50//26
f 65//29 79//29 51//29
f 51//28 50//28 65//28
f 52//30 79//30 9//30
f 79//29 52//29 51//29
f 52//30 9//30 11//30
f 39//31 70//31 40//31
f 39//32 41//32 71//32
f 71//33 70//33 39//33
f 72//34 41//34 42//34
f 41//32 72//32 71//32
f 43//35 74//35 42//35
f 72//34 42//34 74//34
f 43//36 2//36 73//36
f 73//35 74//35 43//35
f 2//36 4//36 73//36
f 69//37 40//37 70//37
f 38//38 69//38 66//38
f 69//39 38//39 40//39
f 67//40 19//40 66//40
f 38//38 66//38 19//38
f 67//41 68//41 20//41
f 20//40 19//40 67//40
f 37//42 68//42 5//42
f 68//41 37//41 20//41
f 37//42 5//42 7//42
f 33//43 59//43 34//43
f 33//44 31//44 58//44
f 58//45 59//45 33//45
f 57//46 31//46 30//46
f 31//44 57//44 58//44
f 32//47 53//47 30//47
f 57//46 30//46 53//46
f 32//48 13//48 54//48
f 54//47 53//47 32//47
f 13//48 16//48 54//48
f 61//49 34//49 59//49
f 35//50 61//50 60//50
f 61//51 35//51 34//51
f 63//52 29//52 60//52
f 35//50 60//50 29//50
f 63//53 62//53 28//53
f 28//52 29//52 63//52
f 36//54 62//54 1//54
f 62//53 36//53 28//53
f 36//54 1//54 3//54
