# Blender 5.0.0
# www.blender.org
mtllib vertical_pull_barbed_flat_plug.mtl
o vertical_pull_barbed_flat_plug
v 0.006250 0.006250 0.030000
v 0.006250 -0.006250 0.007500
v 0.006250 -0.006250 0.030000
v 0.006250 0.006250 0.007500
v -0.010250 0.006250 -0.000000
v 0.002250 0.006250 -0.000000
v 0.002250 0.006250 0.007500
v -0.006250 0.006250 0.030000
v -0.006250 0.006250 0.016500
v -0.010250 0.006250 0.016500
v -0.010250 -0.006250 0.000000
v -0.010250 -0.006250 0.016500
v -0.006250 -0.006250 0.016500
v 0.002250 -0.006250 0.007500
v 0.002250 -0.006250 0.000000
v -0.006250 -0.006250 0.030000
v -0.012000 -0.012000 0.030000
v -0.012000 0.012000 0.030000
v 0.012000 -0.012000 0.030000
v 0.012000 0.012000 0.030000
v 0.012000 -0.012000 0.000000
v 0.012000 0.012000 -0.000000
v -0.012000 0.012000 -0.000000
v -0.012000 -0.012000 0.000000
vn -1.0000 -0.0000 -0.0000
vn -0.0000 -1.0000 -0.0000
vn -0.0000 1.0000 -0.0000
vn -0.0000 -0.0000 1.0000
vn -0.0000 -0.0000 -1.0000
vn 1.0000 -0.0000 -0.0000
s 0
f 1//1 2//1 3//1
f 2//1 1//1 4//1
f 5//2 6//2 7//2
f 1//2 8//2 9//2
f 1//2 9//2 7//2
f 1//2 7//2 4//2
f 9//2 10//2 5//2
f 9//2 5//2 7//2
f 11//3 12//3 13//3
f 14//3 3//3 2//3
f 14//3 15//3 11//3
f 3//3 14//3 13//3
f 11//3 13//3 14//3
f 13//3 16//3 3//3
f 17//4 8//4 18//4
f 3//4 16//4 17//4
f 3//4 17//4 19//4
f 20//4 18//4 8//4
f 20//4 1//4 3//4
f 20//4 8//4 1//4
f 20//4 3//4 19//4
f 8//4 17//4 16//4
f 21//5 15//5 22//5
f 15//5 6//5 22//5
f 23//5 6//5 5//5
f 23//5 5//5 24//5
f 23//5 22//5 6//5
f 24//5 15//5 21//5
f 5//5 11//5 24//5
f 24//5 11//5 15//5
f 21//6 20//6 19//6
f 21//6 22//6 20//6
f 22//3 18//3 20//3
f 22//3 23//3 18//3
f 23//1 17//1 18//1
f 23//1 24//1 17//1
f 24//2 19//2 17//2
f 24//2 21//2 19//2
f 16//6 9//6 8//6
f 9//6 16//6 13//6
f 2//4 7//4 14//4
f 2//4 4//4 7//4
f 14//1 6//1 15//1
f 14//1 7//1 6//1
f 9//5 12//5 10//5
f 9//5 13//5 12//5
f 10//6 11//6 5//6
f 10//6 12//6 11//6
